<svg width="48" height="48" viewBox="0 0 48 48" fill="none" xmlns="http://www.w3.org/2000/svg">
<path d="M10 43.9996C8.9 43.9996 7.958 43.6076 7.174 42.8236C6.39 42.0396 5.99867 41.0983 6 39.9996V30.8996L11.5 24.6496L14.35 27.4996L10.35 31.9996H37.65L33.75 27.5996L36.6 24.7496L42 30.8996V39.9996C42 41.0996 41.608 42.0416 40.824 42.8256C40.04 43.6096 39.0987 44.0009 38 43.9996H10ZM21.2 28.7996L14.25 21.7496C13.4833 20.9829 13.1 20.0329 13.1 18.8996C13.1 17.7663 13.4833 16.8163 14.25 16.0496L24.05 6.24961C24.8167 5.48294 25.7667 5.09961 26.9 5.09961C28.0333 5.09961 28.9833 5.48294 29.75 6.24961L36.8 13.1996C37.5667 13.9663 37.9587 14.9076 37.976 16.0236C37.9933 17.1396 37.618 18.0816 36.85 18.8496L26.85 28.8496C26.0833 29.6163 25.1413 29.9916 24.024 29.9756C22.9067 29.9596 21.9653 29.5676 21.2 28.7996ZM34 15.9996L26.9 8.99961L17 18.8996L24.1 25.8996L34 15.9996Z" fill="white"/>
</svg>
