<svg width="1728" height="542" viewBox="0 0 1728 542" fill="none" xmlns="http://www.w3.org/2000/svg">
<path d="M28.5067 504.293L-5.14102 484.866V512.5L-5.14099 540.5H29.3473L28.5067 504.293Z" stroke="#D3D3D3"/>
<path d="M68.5 293.289L34.359 273.577L0.217987 293.289V332.711L34.359 352.423L68.5 332.711V293.289Z" stroke="#D3D3D3"/>
<path d="M108.5 363.289L74.359 343.577L40.218 363.289V402.711L74.359 422.423L108.5 402.711V363.289Z" stroke="#D3D3D3"/>
<path d="M68.5 436.289L34.359 416.577L0.217987 436.289V475.711L34.359 495.423L68.5 475.711V436.289Z" stroke="#D3D3D3"/>
<path d="M228.5 436.289L194.359 416.577L160.218 436.289V475.711L194.359 495.423L228.5 475.711V436.289Z" stroke="#D3D3D3"/>
<path d="M268.141 366.289L234 346.577L199.859 366.289V405.711L234 425.423L268.141 405.711V366.289Z" stroke="#D3D3D3"/>
<path d="M308.141 436.289L274 416.577L239.859 436.289V475.711L274 495.423L308.141 475.711V436.289Z" stroke="#D3D3D3"/>
<path d="M188.5 507.289L154.359 487.577L120.218 507.289V541.5H151.859H188.5V507.289Z" stroke="#D3D3D3"/>
<path d="M268.5 507.289L234.359 487.577L200.218 507.289L200.218 540.5H268.5V507.289Z" stroke="#D3D3D3"/>
<path d="M347.5 507.289L313.359 487.577L279.218 507.289L279.218 540.5H347.5V507.289Z" stroke="#D3D3D3"/>
<path d="M108.5 507.289L74.359 487.577L40.218 507.289V540.5H74.359H108.5V507.289Z" stroke="#D3D3D3"/>
<path d="M148.5 436.289L114.359 416.577L80.218 436.289V475.711L114.359 495.423L148.5 475.711V436.289Z" stroke="#D3D3D3"/>
<path d="M188.5 366.289L154.359 346.577L120.218 366.289V405.711L154.359 425.423L188.5 405.711V366.289Z" stroke="#D3D3D3"/>
<path d="M228.141 295.289L194 275.577L159.859 295.289V334.711L194 354.423L228.141 334.711V295.289Z" stroke="#D3D3D3"/>
<path d="M28.141 217.289L-5.50003 197.866L-5.5 266L-5.50002 276.134L28.141 256.711V217.289Z" stroke="#D3D3D3"/>
<path d="M111.141 215.289L77 195.577L42.859 215.289V254.711L77 274.423L111.141 254.711V215.289Z" stroke="#D3D3D3"/>
<path d="M112.141 72.2887L78 52.5774L43.859 72.2887V111.711L78 131.423L112.141 111.711V72.2887Z" stroke="#D3D3D3"/>
<path d="M36 1.5H2.85895V40.7113L37 60.4226L71.141 40.7113V1.5H36Z" stroke="#D3D3D3"/>
<path d="M153.141 142.289L119 122.577L84.859 142.289V181.711L119 201.423L153.141 181.711V142.289Z" stroke="#D3D3D3"/>
<path d="M71.141 144.289L37 124.577L2.85898 144.289V183.711L37 203.423L71.141 183.711V144.289Z" stroke="#D3D3D3"/>
<path d="M32.141 72.2887L-1.50003 52.866L-1.5 94L-1.50003 120V131.134L32.141 111.711V72.2887Z" stroke="#D3D3D3"/>
<path d="M148.141 293.289L114 273.577L79.859 293.289V332.711L114 352.423L148.141 332.711V293.289Z" stroke="#D3D3D3"/>
<path d="M193.141 215.289L159 195.577L124.859 215.289V254.711L159 274.423L193.141 254.711V215.289Z" stroke="#D3D3D3"/>
<path d="M28.5 363.289L-5.14102 343.866L-5.14099 375L-5.14102 391.5V422.134L28.5 402.711V363.289Z" stroke="#D3D3D3"/>
<path d="M1693.49 503.293L1727.14 483.866V511.5L1727.14 539.5H1692.65L1693.49 503.293Z" stroke="#D3D3D3"/>
<path d="M1653.5 292.289L1687.64 272.577L1721.78 292.289V331.711L1687.64 351.423L1653.5 331.711V292.289Z" stroke="#D3D3D3"/>
<path d="M1613.5 362.289L1647.64 342.577L1681.78 362.289V401.711L1647.64 421.423L1613.5 401.711V362.289Z" stroke="#D3D3D3"/>
<path d="M1653.5 435.289L1687.64 415.577L1721.78 435.289V474.711L1687.64 494.423L1653.5 474.711V435.289Z" stroke="#D3D3D3"/>
<path d="M1493.5 435.289L1527.64 415.577L1561.78 435.289V474.711L1527.64 494.423L1493.5 474.711V435.289Z" stroke="#D3D3D3"/>
<path d="M1453.86 365.289L1488 345.577L1522.14 365.289V404.711L1488 424.423L1453.86 404.711V365.289Z" stroke="#D3D3D3"/>
<path d="M1413.86 435.289L1448 415.577L1482.14 435.289V474.711L1448 494.423L1413.86 474.711V435.289Z" stroke="#D3D3D3"/>
<path d="M1533.5 506.289L1567.64 486.577L1601.78 506.289V540.5H1570.14H1533.5V506.289Z" stroke="#D3D3D3"/>
<path d="M1453.5 506.289L1487.64 486.577L1521.78 506.289L1521.78 539.5H1453.5V506.289Z" stroke="#D3D3D3"/>
<path d="M1374.5 506.289L1408.64 486.577L1442.78 506.289L1442.78 539.5H1374.5V506.289Z" stroke="#D3D3D3"/>
<path d="M1613.5 506.289L1647.64 486.577L1681.78 506.289V539.5H1647.64H1613.5V506.289Z" stroke="#D3D3D3"/>
<path d="M1573.5 435.289L1607.64 415.577L1641.78 435.289V474.711L1607.64 494.423L1573.5 474.711V435.289Z" stroke="#D3D3D3"/>
<path d="M1533.5 365.289L1567.64 345.577L1601.78 365.289V404.711L1567.64 424.423L1533.5 404.711V365.289Z" stroke="#D3D3D3"/>
<path d="M1493.86 294.289L1528 274.577L1562.14 294.289V333.711L1528 353.423L1493.86 333.711V294.289Z" stroke="#D3D3D3"/>
<path d="M1693.86 216.289L1727.5 196.866L1727.5 265L1727.5 275.134L1693.86 255.711V216.289Z" stroke="#D3D3D3"/>
<path d="M1610.86 214.289L1645 194.577L1679.14 214.289V253.711L1645 273.423L1610.86 253.711V214.289Z" stroke="#D3D3D3"/>
<path d="M1609.86 71.2887L1644 51.5774L1678.14 71.2887V110.711L1644 130.423L1609.86 110.711V71.2887Z" stroke="#D3D3D3"/>
<path d="M1686 0.5H1719.14V39.7113L1685 59.4226L1650.86 39.7113V0.5H1686Z" stroke="#D3D3D3"/>
<path d="M1568.86 141.289L1603 121.577L1637.14 141.289V180.711L1603 200.423L1568.86 180.711V141.289Z" stroke="#D3D3D3"/>
<path d="M1650.86 143.289L1685 123.577L1719.14 143.289V182.711L1685 202.423L1650.86 182.711V143.289Z" stroke="#D3D3D3"/>
<path d="M1689.86 71.2887L1723.5 51.866L1723.5 93L1723.5 119V130.134L1689.86 110.711V71.2887Z" stroke="#D3D3D3"/>
<path d="M1573.86 292.289L1608 272.577L1642.14 292.289V331.711L1608 351.423L1573.86 331.711V292.289Z" stroke="#D3D3D3"/>
<path d="M1528.86 214.289L1563 194.577L1597.14 214.289V253.711L1563 273.423L1528.86 253.711V214.289Z" stroke="#D3D3D3"/>
<path d="M1693.5 362.289L1727.14 342.866L1727.14 374L1727.14 390.5V421.134L1693.5 401.711V362.289Z" stroke="#D3D3D3"/>
</svg>
