<svg width="56" height="56" viewBox="0 0 56 56" fill="none" xmlns="http://www.w3.org/2000/svg">
<g clip-path="url(#clip0_161_226)">
<path d="M44.6968 5.70413L44.6977 5.70447C46.0673 6.23689 47.0606 6.884 48.0901 7.91345C49.1195 8.94291 49.763 9.93272 50.2953 11.3052C50.7002 12.3397 51.1665 13.8774 51.2915 16.6614C51.2915 16.6616 51.2915 16.6619 51.2915 16.6621L50.792 16.6845C50.9285 19.635 50.9565 20.5205 50.9565 27.993L44.6968 5.70413ZM44.6968 5.70413C43.661 5.30377 42.1238 4.83355 39.3383 4.70852C36.376 4.57147 35.4807 4.547 28.0035 4.547H25.9905V4.53966L25.4902 4.54C20.2668 4.5435 19.2578 4.57858 16.665 4.69803L16.6649 4.69803C13.8805 4.82654 12.3465 5.29294 11.3092 5.69752L44.6968 5.70413ZM16.4833 0.66748C19.4566 0.535026 20.4042 0.500022 27.993 0.5H28C28.0012 0.5 28.0023 0.5 28.0035 0.5C35.5996 0.500032 36.5404 0.535046 39.5168 0.667485C42.4479 0.801831 44.4307 1.26509 46.159 1.93611L46.159 1.93613L46.1641 1.93805C47.9648 2.61466 49.5957 3.67699 50.9425 5.05055L50.9424 5.05061L50.9491 5.05723C52.3216 6.40519 53.3839 8.03603 54.0621 9.83627L54.0638 9.84078C54.7314 11.5622 55.1947 13.545 55.3325 16.4763C55.465 19.454 55.5 20.3979 55.5 28C55.5 35.6016 55.465 36.5459 55.3326 39.5196C55.1948 42.4542 54.7316 44.4337 54.064 46.1589C53.3696 47.9402 52.4507 49.4412 50.9459 50.9459L50.9425 50.9494C49.5963 52.3222 47.9666 53.3845 46.1673 54.0621L46.1673 54.062L46.1622 54.064C44.4381 54.7347 42.4521 55.1947 39.5201 55.3325C36.5425 55.465 35.6021 55.5 28 55.5C20.3979 55.5 19.454 55.465 16.4764 55.3325C13.5418 55.1982 11.566 54.735 9.83746 54.0639L9.8373 54.0638C8.0568 53.3733 6.55597 52.4512 5.05445 50.9463L5.05405 50.9459C3.54926 49.4412 2.6303 47.9402 1.93599 46.1587C1.26526 44.4345 0.805331 42.4554 0.667476 39.5201C0.534984 36.546 0.5 35.6021 0.5 28.0035C0.5 20.3977 0.534986 19.4539 0.66749 16.4726C0.801847 13.5449 1.26512 11.5625 1.93586 9.84158L1.93589 9.84159L1.93789 9.83629C2.61616 8.03609 3.67845 6.40525 5.05087 5.05721L5.05093 5.05727L5.0574 5.05067C6.40463 3.67754 8.03551 2.61522 9.83603 1.93799L9.83604 1.93802L9.84127 1.93599C11.5655 1.26528 13.5445 0.805342 16.4833 0.66748ZM41.854 10.4127C42.201 10.269 42.5729 10.195 42.9485 10.195C43.707 10.195 44.4345 10.4963 44.9708 11.0327C45.5072 11.569 45.8085 12.2965 45.8085 13.055C45.8085 13.8135 45.5072 14.541 44.9708 15.0773C44.4345 15.6137 43.707 15.915 42.9485 15.915C42.5729 15.915 42.201 15.841 41.854 15.6973C41.507 15.5536 41.1917 15.3429 40.9262 15.0773C40.6606 14.8117 40.4499 14.4965 40.3062 14.1495C40.1625 13.8025 40.0885 13.4306 40.0885 13.055C40.0885 12.6794 40.1625 12.3075 40.3062 11.9605C40.4499 11.6135 40.6606 11.2983 40.9262 11.0327C41.1917 10.7671 41.507 10.5564 41.854 10.4127ZM22.6173 15.1156C24.3265 14.431 26.1548 14.0932 27.9957 14.1219C31.6394 14.1788 35.1145 15.6661 37.6711 18.2629C40.2277 20.8597 41.6607 24.3577 41.6607 28.0017C41.6607 31.6458 40.2277 35.1438 37.6711 37.7406C35.1145 40.3374 31.6394 41.8247 27.9957 41.8816C26.1548 41.9103 24.3265 41.5725 22.6173 40.8879C20.9082 40.2032 19.3523 39.1854 18.0403 37.8937C16.7283 36.602 15.6863 35.0622 14.9751 33.3639C14.2639 31.6657 13.8977 29.8429 13.8977 28.0017C13.8977 26.1606 14.2639 24.3378 14.9751 22.6396C15.6863 20.9413 16.7283 19.4015 18.0403 18.1098C19.3523 16.8181 20.9082 15.8003 22.6173 15.1156ZM34.9575 21.046C33.1132 19.2016 30.6118 18.1655 28.0035 18.1655C25.3952 18.1655 22.8938 19.2016 21.0495 21.046C19.2051 22.8903 18.169 25.3917 18.169 28C18.169 30.6083 19.2051 33.1097 21.0495 34.954C22.8938 36.7984 25.3952 37.8345 28.0035 37.8345C30.6118 37.8345 33.1132 36.7984 34.9575 34.954C36.8019 33.1097 37.838 30.6083 37.838 28C37.838 25.3917 36.8019 22.8903 34.9575 21.046Z" stroke="#1E1E1E"/>
</g>
<defs>
<clipPath id="clip0_161_226">
<rect width="56" height="56" fill="white"/>
</clipPath>
</defs>
</svg>
