<svg width="28" height="26" viewBox="0 0 28 26" fill="none" xmlns="http://www.w3.org/2000/svg">
<path opacity="0.5" d="M23.8292 8.19433C23.8207 7.44003 23.6794 6.69279 23.4113 5.98542C23.2165 5.46857 22.9055 5.00101 22.5013 4.61717C22.1085 4.22245 21.6302 3.91889 21.1014 3.72883C20.3776 3.46714 19.6132 3.32863 18.8414 3.31933C17.5579 3.263 17.1733 3.25 13.9247 3.25C10.6771 3.25 10.2903 3.26083 9.00787 3.31933C8.23613 3.32755 7.47161 3.46572 6.74788 3.72775C6.21891 3.91785 5.74047 4.22183 5.348 4.61717C4.9448 5.00201 4.63433 5.46978 4.43912 5.9865C4.17154 6.69367 4.02984 7.44041 4.02016 8.19433C3.96252 9.44992 3.94922 9.82583 3.94922 13.0011C3.94922 16.1763 3.9603 16.5533 4.02016 17.8068C4.02892 18.5611 4.17065 19.3084 4.43912 20.0157C4.63309 20.5313 4.94455 20.9993 5.3491 21.3818C5.74195 21.7769 6.22026 22.0812 6.74899 22.2723C7.47166 22.5344 8.23644 22.6731 9.00787 22.6807C10.2903 22.7392 10.6771 22.75 13.9247 22.75C17.1722 22.75 17.5601 22.7392 18.8414 22.6807C19.6132 22.6725 20.3777 22.5343 21.1014 22.2723C21.6263 22.0745 22.103 21.7716 22.5008 21.383C22.8986 20.9943 23.2088 20.5286 23.4113 20.0157C23.6789 19.3078 23.8202 18.5603 23.8292 17.8057C23.889 16.5533 23.9001 16.1763 23.9001 13C23.9001 9.82367 23.889 9.44883 23.8292 8.19433Z" fill="black"/>
<path d="M20.3456 8.25283C20.2087 7.90567 19.9989 7.59039 19.7297 7.3273C19.4605 7.06421 19.1379 6.85915 18.7828 6.72533C18.2928 6.54831 17.7755 6.45451 17.2532 6.448C16.3842 6.409 16.1226 6.40033 13.9247 6.40033C11.7268 6.40033 11.4663 6.409 10.5996 6.448C10.0773 6.45348 9.55983 6.54693 9.07001 6.72425C8.35067 6.99508 7.78428 7.54975 7.50719 8.25175C7.32541 8.73166 7.23009 9.23758 7.22344 9.74675C7.18354 10.5961 7.17578 10.8507 7.17578 13C7.17578 15.1493 7.18354 15.405 7.22344 16.2532C7.22898 16.7635 7.32541 17.2694 7.50608 17.7482C7.64305 18.0954 7.85288 18.4106 8.12204 18.6737C8.3912 18.9368 8.71374 19.1419 9.0689 19.2757C9.55991 19.4523 10.0775 19.5466 10.5985 19.552C11.4663 19.591 11.7268 19.5986 13.9258 19.5986C16.1249 19.5986 16.3864 19.591 17.2543 19.552C17.7767 19.5461 18.2941 19.4523 18.7839 19.2747C19.139 19.1408 19.4616 18.9357 19.7307 18.6726C19.9999 18.4095 20.2097 18.0943 20.3467 17.7472C20.5285 17.2694 20.6238 16.7635 20.6304 16.2522C20.6703 15.4039 20.6781 15.1493 20.6781 13C20.6781 10.8507 20.6703 10.5961 20.6304 9.74783C20.6244 9.23727 20.5284 8.73154 20.3467 8.25283H20.3456ZM13.9247 17.1329C13.3694 17.1329 12.8196 17.026 12.3065 16.8183C11.7935 16.6106 11.3274 16.3062 10.9347 15.9224C10.5421 15.5386 10.2306 15.083 10.0181 14.5816C9.80561 14.0802 9.69624 13.5427 9.69624 13C9.69624 12.4573 9.80561 11.9198 10.0181 11.4184C10.2306 10.917 10.5421 10.4614 10.9347 10.0776C11.3274 9.69381 11.7935 9.38938 12.3065 9.18168C12.8196 8.97398 13.3694 8.86708 13.9247 8.86708C15.0462 8.86708 16.1217 9.30251 16.9147 10.0776C17.7077 10.8527 18.1532 11.9039 18.1532 13C18.1532 14.0961 17.7077 15.1473 16.9147 15.9224C16.1217 16.6975 15.0462 17.1329 13.9247 17.1329ZM18.3206 9.66875C18.0642 9.66035 17.8212 9.55492 17.643 9.37472C17.4647 9.19452 17.365 8.95364 17.365 8.70295C17.365 8.45227 17.4647 8.21139 17.643 8.03119C17.8212 7.85098 18.0642 7.74556 18.3206 7.73716C18.5769 7.74482 18.8214 7.84957 19.0002 8.02929C19.179 8.20901 19.2794 8.44963 19.2801 8.70034C19.2808 8.95104 19.1819 9.1922 19.004 9.3729C18.8262 9.5536 18.5835 9.65968 18.3272 9.66875H18.3206Z" fill="white"/>
<path d="M13.9247 10.3166C13.3817 10.3166 12.8509 10.474 12.3994 10.7688C11.9479 11.0637 11.596 11.4828 11.3882 11.9731C11.1804 12.4634 11.126 13.003 11.232 13.5235C11.3379 14.044 11.5994 14.5222 11.9833 14.8975C12.3673 15.2728 12.8565 15.5283 13.389 15.6319C13.9216 15.7354 14.4736 15.6823 14.9753 15.4792C15.477 15.2761 15.9058 14.9321 16.2074 14.4908C16.5091 14.0495 16.6701 13.5307 16.6701 13C16.6701 12.2885 16.381 11.6061 15.8664 11.1029C15.3518 10.5997 14.6537 10.3169 13.9258 10.3166H13.9247Z" fill="white"/>
<path d="M24.9309 7.65917C24.9209 6.82156 24.7634 5.99187 24.4653 5.20651C24.2485 4.6323 23.9027 4.11292 23.4534 3.68659C23.0173 3.24733 22.4859 2.90934 21.8983 2.69751C21.0942 2.4068 20.2451 2.2529 19.3878 2.24251C17.9614 2.18184 17.5346 2.16667 13.9246 2.16667C10.3169 2.16667 9.88791 2.17967 8.46253 2.24251C7.60523 2.25267 6.75608 2.40657 5.95205 2.69751C5.36424 2.9088 4.83272 3.24687 4.39699 3.68659C3.94845 4.11355 3.60277 4.63274 3.38504 5.20651C3.08765 5.99244 2.9302 6.82236 2.91952 7.66025C2.85634 9.0545 2.84082 9.47267 2.84082 13.0011C2.84082 16.5295 2.85412 16.9477 2.91952 18.3408C2.9306 19.1783 3.08688 20.0092 3.38504 20.7946C3.60117 21.3688 3.94699 21.8888 4.39588 22.3134C4.83233 22.7523 5.36364 23.0902 5.95094 23.3025C6.75481 23.594 7.60406 23.7479 8.46142 23.7575C9.8868 23.8214 10.3157 23.8333 13.9246 23.8333C17.5346 23.8333 17.9625 23.8203 19.389 23.7575C20.2459 23.7478 21.0948 23.5939 21.8983 23.3025C22.4816 23.0828 23.0114 22.7461 23.4535 22.3141C23.8956 21.8822 24.2403 21.3646 24.4653 20.7946C24.7624 20.0081 24.9198 19.1783 24.9309 18.3408C24.9951 16.9466 25.0084 16.5273 25.0084 13C25.0084 9.47159 24.9951 9.0545 24.9309 7.65917ZM22.11 16.3183C22.0969 16.9862 21.9676 17.6471 21.7276 18.2726C21.516 18.8073 21.1925 19.2928 20.7777 19.6982C20.363 20.1036 19.8662 20.4198 19.3191 20.6267C18.6794 20.8608 18.0037 20.9872 17.3207 21.0004C16.4418 21.0405 16.1613 21.0492 13.9246 21.0492C11.6879 21.0492 11.4086 21.0394 10.5297 21.0004C9.8467 20.9871 9.17099 20.8607 8.53125 20.6267C7.98398 20.42 7.48692 20.1039 7.07197 19.6985C6.65702 19.2931 6.33332 18.8074 6.12163 18.2726C5.88197 17.647 5.75267 16.9862 5.73924 16.3183C5.70044 15.4603 5.68936 15.1862 5.68936 13C5.68936 10.8138 5.69934 10.5398 5.73924 9.68176C5.75267 9.01386 5.88197 8.35303 6.12163 7.72742C6.33326 7.19257 6.65694 6.70687 7.0719 6.30147C7.48686 5.89608 7.98394 5.57994 8.53125 5.37334C9.17098 5.13921 9.8467 5.01284 10.5297 4.99959C11.4086 4.9595 11.6901 4.95084 13.9257 4.95084C16.1613 4.95084 16.4418 4.96059 17.3207 4.99959C18.0041 5.01255 18.6802 5.13893 19.3202 5.37334C19.8671 5.58031 20.3637 5.8966 20.7782 6.30197C21.1928 6.70734 21.5161 7.19285 21.7276 7.72742C21.9682 8.35359 22.0967 9.01334 22.11 9.68176C22.1499 10.5398 22.1599 10.8138 22.1599 13C22.1599 15.1862 22.1499 15.4592 22.11 16.3183Z" fill="white"/>
</svg>
