<svg width="124" height="124" viewBox="0 0 124 124" fill="none" xmlns="http://www.w3.org/2000/svg">
<circle cx="62" cy="62" r="62" transform="rotate(-90 62 62)" fill="#1E1E1E"/>
<path d="M61.0056 24.3158C61.1329 23.124 62.8671 23.124 62.9944 24.3158L65.7799 50.4126C65.8716 51.2721 66.9369 51.6182 67.5163 50.9768L85.1091 31.5013C85.9126 30.6119 87.3156 31.6313 86.718 32.6703L73.6322 55.4203C73.2013 56.1695 73.8597 57.0757 74.7054 56.8974L100.386 51.4822C101.558 51.2349 102.094 52.8843 101 53.3736L77.0415 64.0871C76.2524 64.4399 76.2524 65.5601 77.0415 65.9129L101 76.6264C102.094 77.1157 101.558 78.7651 100.386 78.5178L74.7054 73.1026C73.8597 72.9243 73.2013 73.8305 73.6322 74.5797L86.718 97.3297C87.3156 98.3687 85.9126 99.3881 85.1091 98.4987L67.5163 79.0232C66.9369 78.3818 65.8716 78.7279 65.7799 79.5874L62.9944 105.684C62.8671 106.876 61.1329 106.876 61.0056 105.684L58.2201 79.5874C58.1284 78.7279 57.0631 78.3818 56.4837 79.0232L38.8909 98.4987C38.0874 99.3881 36.6844 98.3687 37.282 97.3297L50.3678 74.5797C50.7987 73.8305 50.1403 72.9243 49.2946 73.1026L23.6143 78.5178C22.4415 78.7651 21.9056 77.1157 22.9998 76.6264L46.9585 65.9129C47.7476 65.5601 47.7476 64.4399 46.9585 64.0871L22.9998 53.3736C21.9056 52.8843 22.4415 51.2349 23.6143 51.4822L49.2946 56.8974C50.1403 57.0757 50.7987 56.1695 50.3678 55.4203L37.282 32.6703C36.6844 31.6313 38.0874 30.6119 38.8909 31.5013L56.4837 50.9768C57.0631 51.6182 58.1284 51.2721 58.2201 50.4126L61.0056 24.3158Z" fill="white"/>
</svg>
