<svg width="56" height="56" viewBox="0 0 56 56" fill="none" xmlns="http://www.w3.org/2000/svg">
<path d="M35.7074 42.8589L35.837 42.4725L35.4847 42.2676L19.0347 32.701L18.7229 32.5196L18.4525 32.7583C17.8337 33.3043 17.1431 33.7317 16.3787 34.0419C15.6229 34.3485 14.8316 34.5013 14.0009 34.4998H14C12.1867 34.4998 10.6615 33.8709 9.39522 32.6046C8.12894 31.3383 7.5 29.8132 7.5 27.9998C7.5 26.1865 8.12894 24.6613 9.39522 23.3951C10.6615 22.1288 12.1867 21.4998 14 21.4998C14.831 21.4998 15.6226 21.6534 16.3787 21.9602C17.1433 22.2704 17.8341 22.6972 18.453 23.2419L18.7234 23.4798L19.0347 23.2987L35.4847 13.7321L35.8363 13.5276L35.7077 13.1417C35.6415 12.9433 35.5894 12.7127 35.5539 12.4472C35.5178 12.1768 35.5 11.9166 35.5 11.6665C35.5 9.85315 36.1289 8.328 37.3952 7.06172C38.6615 5.79545 40.1866 5.1665 42 5.1665C43.8133 5.1665 45.3385 5.79545 46.6048 7.06172C47.8711 8.328 48.5 9.85315 48.5 11.6665C48.5 13.4799 47.8711 15.005 46.6048 16.2713C45.3385 17.5376 43.8133 18.1665 42 18.1665C41.1687 18.1665 40.3768 18.0136 39.6205 17.7082C38.8568 17.3998 38.1666 16.9726 37.548 16.4254L37.2775 16.1861L36.9653 16.3676L20.5153 25.9343L20.1637 26.1388L20.2923 26.5246C20.3584 26.7227 20.4105 26.954 20.446 27.2211C20.4823 27.4936 20.5 27.7531 20.5 27.9998C20.5 28.2483 20.4823 28.5085 20.446 28.7809C20.4105 29.048 20.3584 29.2781 20.2926 29.4741L20.163 29.8605L20.5153 30.0654L36.9653 39.6321L37.2771 39.8134L37.5475 39.5748C38.1661 39.0289 38.8565 38.6023 39.6205 38.2938C40.3771 37.9883 41.1693 37.8346 42.0009 37.8332C43.8138 37.8334 45.3387 38.4623 46.6048 39.7284C47.8711 40.9947 48.5 42.5198 48.5 44.3332C48.5 46.1465 47.8711 47.6717 46.6048 48.938C45.3385 50.2042 43.8133 50.8332 42 50.8332C40.1866 50.8332 38.6615 50.2042 37.3952 48.938C36.1289 47.6717 35.5 46.1465 35.5 44.3332C35.5 44.0847 35.5177 43.8245 35.554 43.5521C35.5895 43.2851 35.6416 43.055 35.7074 42.8589Z" fill="#F8F8F8" stroke="black"/>
</svg>
