<svg width="56" height="56" viewBox="0 0 56 56" fill="none" xmlns="http://www.w3.org/2000/svg">
<path d="M51.3333 9.3567C49 10.5 46.7133 10.9644 44.3333 11.6667C41.7177 8.71503 37.8397 8.5517 34.1133 9.94703C30.387 11.3424 27.9463 14.7537 28 18.6667V21C20.4283 21.1937 13.685 17.745 9.33334 11.6667C9.33334 11.6667 -0.424662 29.0104 18.6667 37.3334C14.2987 40.243 9.94234 42.2054 4.66667 42C12.3853 46.207 20.797 47.6537 28.0793 45.5397C36.4327 43.113 43.2973 36.8527 45.9317 27.475C46.7175 24.6229 47.1077 21.6764 47.0913 18.718C47.0913 18.137 50.6147 12.25 51.3333 9.35436V9.3567Z" stroke="#1E1E1E" stroke-width="2" stroke-linecap="round" stroke-linejoin="round"/>
</svg>
