<svg width="27" height="26" viewBox="0 0 27 26" fill="none" xmlns="http://www.w3.org/2000/svg">
<g clip-path="url(#clip0_20_178)">
<path d="M8.68519 24.375C18.7238 24.375 24.2153 16.2451 24.2153 9.20725C24.2153 8.97975 24.2153 8.749 24.2053 8.5215C25.2744 7.76504 26.1972 6.82849 26.9303 5.75575C25.9316 6.18613 24.8733 6.46978 23.7897 6.5975C24.9311 5.93066 25.7859 4.88145 26.1954 3.64487C25.123 4.26582 23.9493 4.70173 22.7256 4.9335C21.9029 4.07716 20.8143 3.50986 19.6284 3.31948C18.4424 3.12909 17.2254 3.32624 16.1657 3.8804C15.106 4.43455 14.2628 5.31477 13.7668 6.38472C13.2707 7.45467 13.1495 8.65464 13.4219 9.79875C11.2518 9.69239 9.12879 9.14138 7.19061 8.18145C5.25243 7.22153 3.54233 5.87412 2.17123 4.22662C1.47518 5.40163 1.26276 6.79152 1.5771 8.11405C1.89145 9.43659 2.709 10.5926 3.86373 11.3474C2.99843 11.3186 2.15215 11.0915 1.39315 10.6844V10.7575C1.39464 11.9884 1.83092 13.1811 2.62823 14.1339C3.42554 15.0867 4.53499 15.7412 5.76904 15.9867C5.30063 16.1129 4.81677 16.1757 4.33091 16.1736C3.9884 16.1746 3.64657 16.1436 3.31009 16.081C3.65888 17.1406 4.33802 18.067 5.25239 18.7305C6.16676 19.394 7.27056 19.7614 8.4092 19.7811C6.47489 21.266 4.08552 22.0714 1.62591 22.0675C1.19251 22.0693 0.759414 22.0449 0.329102 21.9944C2.82548 23.5499 5.72464 24.3759 8.68519 24.375Z" fill="white"/>
</g>
<defs>
<clipPath id="clip0_20_178">
<rect width="26.6012" height="26" fill="white" transform="translate(0.329102)"/>
</clipPath>
</defs>
</svg>
